<svg width="20" height="21" viewBox="0 0 20 21" fill="none" xmlns="http://www.w3.org/2000/svg">
<path d="M18.125 6.92969H15V8.17969H18.125V11.9297H13.75V13.1797H15.625V14.5184C15.0358 14.6706 14.5224 15.0323 14.1809 15.5359C13.8394 16.0396 13.6933 16.6504 13.7699 17.2541C13.8466 17.8577 14.1408 18.4126 14.5974 18.8149C15.0539 19.2171 15.6415 19.4391 16.25 19.4391C16.8585 19.4391 17.4461 19.2171 17.9026 18.8149C18.3592 18.4126 18.6534 17.8577 18.7301 17.2541C18.8067 16.6504 18.6606 16.0396 18.3191 15.5359C17.9776 15.0323 17.4642 14.6706 16.875 14.5184V13.1797H18.125C18.4564 13.1792 18.774 13.0473 19.0083 12.813C19.2426 12.5787 19.3745 12.2611 19.375 11.9297V8.17969C19.375 7.84817 19.2433 7.53022 19.0089 7.2958C18.7745 7.06138 18.4565 6.92969 18.125 6.92969ZM17.5 16.9297C17.5 17.1769 17.4267 17.4186 17.2893 17.6242C17.152 17.8297 16.9568 17.9899 16.7284 18.0845C16.4999 18.1791 16.2486 18.2039 16.0061 18.1557C15.7637 18.1074 15.5409 17.9884 15.3661 17.8136C15.1913 17.6388 15.0722 17.416 15.024 17.1736C14.9758 16.9311 15.0005 16.6797 15.0951 16.4513C15.1898 16.2229 15.35 16.0277 15.5555 15.8904C15.7611 15.753 16.0028 15.6797 16.25 15.6797C16.5814 15.6802 16.899 15.812 17.1333 16.0464C17.3676 16.2807 17.4995 16.5983 17.5 16.9297ZM11.875 4.42969H8.75V5.67969H11.875V9.42969H7.5V10.6797H9.375V14.5184C8.78584 14.6706 8.27238 15.0323 7.93087 15.5359C7.58937 16.0396 7.44325 16.6504 7.51993 17.2541C7.5966 17.8577 7.89079 18.4126 8.34735 18.8149C8.80392 19.2171 9.39152 19.4391 10 19.4391C10.6085 19.4391 11.1961 19.2171 11.6526 18.8149C12.1092 18.4126 12.4034 17.8577 12.4801 17.2541C12.5567 16.6504 12.4106 16.0396 12.0691 15.5359C11.7276 15.0323 11.2142 14.6706 10.625 14.5184V10.6797H11.875C12.2065 10.6797 12.5245 10.548 12.7589 10.3136C12.9933 10.0792 13.125 9.76121 13.125 9.42969V5.67969C13.125 5.34817 12.9933 5.03022 12.7589 4.7958C12.5245 4.56138 12.2065 4.42969 11.875 4.42969ZM11.25 16.9297C11.25 17.1769 11.1767 17.4186 11.0393 17.6242C10.902 17.8297 10.7068 17.9899 10.4784 18.0845C10.2499 18.1791 9.99861 18.2039 9.75614 18.1557C9.51366 18.1074 9.29093 17.9884 9.11612 17.8136C8.9413 17.6388 8.82225 17.416 8.77402 17.1736C8.72579 16.9311 8.75054 16.6797 8.84515 16.4513C8.93976 16.2229 9.09998 16.0277 9.30554 15.8904C9.5111 15.753 9.75277 15.6797 10 15.6797C10.3314 15.6802 10.649 15.812 10.8833 16.0464C11.1176 16.2807 11.2495 16.5983 11.25 16.9297ZM5.625 1.92969H1.875C1.54348 1.92969 1.22554 2.06138 0.991117 2.2958C0.756696 2.53022 0.625 2.84817 0.625 3.17969V6.92969C0.625 7.26121 0.756696 7.57915 0.991117 7.81357C1.22554 8.04799 1.54348 8.17969 1.875 8.17969H3.125V14.5184C2.53584 14.6706 2.02238 15.0323 1.68087 15.5359C1.33937 16.0396 1.19325 16.6504 1.26993 17.2541C1.3466 17.8577 1.64079 18.4126 2.09735 18.8149C2.55392 19.2171 3.14152 19.4391 3.75 19.4391C4.35848 19.4391 4.94608 19.2171 5.40265 18.8149C5.85921 18.4126 6.1534 17.8577 6.23007 17.2541C6.30675 16.6504 6.16063 16.0396 5.81913 15.5359C5.47762 15.0323 4.96416 14.6706 4.375 14.5184V8.17969H5.625C5.95652 8.17969 6.27446 8.04799 6.50888 7.81357C6.7433 7.57915 6.875 7.26121 6.875 6.92969V3.17969C6.875 2.84817 6.7433 2.53022 6.50888 2.2958C6.27446 2.06138 5.95652 1.92969 5.625 1.92969ZM5 16.9297C5 17.1769 4.92669 17.4186 4.78934 17.6242C4.65199 17.8297 4.45676 17.9899 4.22835 18.0845C3.99995 18.1791 3.74861 18.2039 3.50614 18.1557C3.26366 18.1074 3.04093 17.9884 2.86612 17.8136C2.6913 17.6388 2.57225 17.416 2.52402 17.1736C2.47579 16.9311 2.50054 16.6797 2.59515 16.4513C2.68976 16.2229 2.84998 16.0277 3.05554 15.8904C3.2611 15.753 3.50277 15.6797 3.75 15.6797C4.08152 15.6797 4.39946 15.8114 4.63388 16.0458C4.8683 16.2802 5 16.5982 5 16.9297ZM1.875 6.92969V3.17969H5.625L5.62625 6.92969H1.875Z" fill="white"/>
</svg>
