<svg width="20" height="21" viewBox="0 0 20 21" fill="none" xmlns="http://www.w3.org/2000/svg">
<g clip-path="url(#clip0_2103_67427)">
<path d="M16.6673 7.34766H3.33398V5.68099H16.6673V7.34766ZM15.0007 2.34766H5.00065V4.01432H15.0007V2.34766ZM8.59398 18.2643L5.84398 15.5143L7.01065 14.3477L8.59398 15.931L13.0107 11.5143L14.1773 12.681L8.59398 18.2643Z" fill="white"/>
<path d="M18.3333 9.01172H1.66667C1.22464 9.01172 0.800716 9.18731 0.488155 9.49987C0.175595 9.81244 0 10.2364 0 10.6784L0 19.0117C0 19.4537 0.175595 19.8777 0.488155 20.1902C0.800716 20.5028 1.22464 20.6784 1.66667 20.6784H18.3333C18.7754 20.6784 19.1993 20.5028 19.5118 20.1902C19.8244 19.8777 20 19.4537 20 19.0117V10.6784C20 10.2364 19.8244 9.81244 19.5118 9.49987C19.1993 9.18731 18.7754 9.01172 18.3333 9.01172ZM18.3333 19.0117H1.66667V10.6784H18.3333V19.0117Z" fill="white"/>
</g>
<defs>
<clipPath id="clip0_2103_67427">
<rect width="20" height="20" fill="white" transform="translate(0 0.679688)"/>
</clipPath>
</defs>
</svg>
