<svg width="20" height="21" viewBox="0 0 20 21" fill="none" xmlns="http://www.w3.org/2000/svg">
<g clip-path="url(#clip0_2103_67413)">
<path d="M17.1875 16.207C17.6172 16.4219 18.0046 16.6855 18.3496 16.998C18.6947 17.3105 18.9876 17.6589 19.2285 18.043C19.4694 18.4271 19.6582 18.8438 19.7949 19.293C19.9316 19.7422 20 20.2044 20 20.6797H18.75C18.75 20.1654 18.6523 19.6803 18.457 19.2246C18.2617 18.7689 17.9948 18.3717 17.6562 18.0332C17.3177 17.6947 16.9173 17.4245 16.4551 17.2227C15.9928 17.0208 15.5078 16.9232 15 16.9297C14.4792 16.9297 13.9941 17.0273 13.5449 17.2227C13.0957 17.418 12.6986 17.6849 12.3535 18.0234C12.0085 18.362 11.7383 18.7624 11.543 19.2246C11.3477 19.6868 11.25 20.1719 11.25 20.6797H10C10 20.2044 10.0651 19.7422 10.1953 19.293C10.3255 18.8438 10.5143 18.4271 10.7617 18.043C11.0091 17.6589 11.3053 17.3105 11.6504 16.998C11.9954 16.6855 12.3828 16.4219 12.8125 16.207C12.3242 15.8555 11.9434 15.416 11.6699 14.8887C11.3965 14.3613 11.2565 13.7917 11.25 13.1797C11.25 12.6654 11.3477 12.1803 11.543 11.7246C11.7383 11.2689 12.0052 10.8717 12.3438 10.5332C12.6823 10.1947 13.0794 9.92448 13.5352 9.72266C13.9909 9.52083 14.4792 9.42318 15 9.42969C15.5143 9.42969 15.9993 9.52734 16.4551 9.72266C16.9108 9.91797 17.3079 10.1849 17.6465 10.5234C17.985 10.862 18.2552 11.2624 18.457 11.7246C18.6589 12.1868 18.7565 12.6719 18.75 13.1797C18.75 13.7917 18.6133 14.3613 18.3398 14.8887C18.0664 15.416 17.6823 15.8555 17.1875 16.207ZM15 15.6797C15.3451 15.6797 15.6673 15.6146 15.9668 15.4844C16.2663 15.3542 16.5332 15.1751 16.7676 14.9473C17.002 14.7194 17.181 14.4557 17.3047 14.1562C17.4284 13.8568 17.4935 13.5312 17.5 13.1797C17.5 12.8346 17.4349 12.5124 17.3047 12.2129C17.1745 11.9134 16.9954 11.6465 16.7676 11.4121C16.5397 11.1777 16.276 10.9987 15.9766 10.875C15.6771 10.7513 15.3516 10.6862 15 10.6797C14.6549 10.6797 14.3327 10.7448 14.0332 10.875C13.7337 11.0052 13.4668 11.1842 13.2324 11.4121C12.998 11.64 12.819 11.9036 12.6953 12.2031C12.5716 12.5026 12.5065 12.8281 12.5 13.1797C12.5 13.5247 12.5651 13.847 12.6953 14.1465C12.8255 14.446 13.0046 14.7129 13.2324 14.9473C13.4603 15.1816 13.724 15.3607 14.0234 15.4844C14.3229 15.6081 14.6484 15.6732 15 15.6797ZM10 16.4609C9.79167 16.7018 9.60286 16.9525 9.43359 17.2129C9.26432 17.4733 9.11458 17.7533 8.98438 18.0527C8.63932 17.6947 8.22266 17.418 7.73438 17.2227C7.24609 17.0273 6.7513 16.9297 6.25 16.9297H2.5V4.42969H1.25V18.1797H8.93555C8.8444 18.3815 8.76953 18.5866 8.71094 18.7949C8.65234 19.0033 8.60352 19.2148 8.56445 19.4297H0V3.17969H2.5V1.92969H6.25C6.82292 1.92969 7.37305 2.01758 7.90039 2.19336C8.42773 2.36914 8.91927 2.63281 9.375 2.98438C9.82422 2.63281 10.3125 2.36914 10.8398 2.19336C11.3672 2.01758 11.9206 1.92969 12.5 1.92969H16.25V3.17969H18.75V9.42969C18.3724 9.05859 17.9557 8.74935 17.5 8.50195V4.42969H16.25V8.0332C16.0417 7.97461 15.8333 7.93229 15.625 7.90625C15.4167 7.88021 15.2083 7.86719 15 7.86719V3.17969H12.5C12.0443 3.17969 11.6016 3.25781 11.1719 3.41406C10.7422 3.57031 10.3516 3.80143 10 4.10742V16.4609ZM8.75 16.334V4.10742C8.39844 3.80794 8.00781 3.58008 7.57812 3.42383C7.14844 3.26758 6.70573 3.1862 6.25 3.17969H3.75V15.6797H6.25C6.6862 15.6797 7.11589 15.735 7.53906 15.8457C7.96224 15.9564 8.36589 16.1191 8.75 16.334Z" fill="white"/>
</g>
<defs>
<clipPath id="clip0_2103_67413">
<rect width="20" height="20" fill="white" transform="translate(0 0.679688)"/>
</clipPath>
</defs>
</svg>
