<svg width="20" height="20" viewBox="0 0 20 20" fill="none" xmlns="http://www.w3.org/2000/svg">
<path d="M8.33398 5.83334C8.33398 7.21406 7.2147 8.33334 5.83398 8.33334C4.45327 8.33334 3.33398 7.21406 3.33398 5.83334C3.33398 4.45263 4.45327 3.33334 5.83398 3.33334C7.2147 3.33334 8.33398 4.45263 8.33398 5.83334Z" stroke="#E9E9EB" stroke-width="1.5"/>
<path d="M16.6673 14.1667C16.6673 15.5474 15.548 16.6667 14.1673 16.6667C12.7866 16.6667 11.6673 15.5474 11.6673 14.1667C11.6673 12.786 12.7866 11.6667 14.1673 11.6667C15.548 11.6667 16.6673 12.786 16.6673 14.1667Z" stroke="#E9E9EB" stroke-width="1.5"/>
<path d="M11.6673 5.00001C11.6673 4.07954 12.4135 3.33334 13.334 3.33334H15.0007C15.9211 3.33334 16.6673 4.07954 16.6673 5.00001V6.66668C16.6673 7.58715 15.9211 8.33334 15.0007 8.33334H13.334C12.4135 8.33334 11.6673 7.58715 11.6673 6.66668V5.00001Z" stroke="#E9E9EB" stroke-width="1.5"/>
<path d="M3.33398 13.3333C3.33398 12.4129 4.08018 11.6667 5.00065 11.6667H6.66732C7.58779 11.6667 8.33398 12.4129 8.33398 13.3333V15C8.33398 15.9205 7.58779 16.6667 6.66732 16.6667H5.00065C4.08018 16.6667 3.33398 15.9205 3.33398 15V13.3333Z" stroke="#E9E9EB" stroke-width="1.5"/>
</svg>
