<svg width="20" height="21" viewBox="0 0 20 21" fill="none" xmlns="http://www.w3.org/2000/svg">
<path d="M16.6673 1.97667H8.33398C7.67094 1.97667 7.03506 2.24006 6.56622 2.7089C6.09738 3.17774 5.83398 3.81363 5.83398 4.47667V10.31C5.83398 10.973 6.09738 11.6089 6.56622 12.0778C7.03506 12.5466 7.67094 12.81 8.33398 12.81H16.6673C17.3304 12.81 17.9662 12.5466 18.4351 12.0778C18.9039 11.6089 19.1673 10.973 19.1673 10.31V4.47667C19.1673 3.81363 18.9039 3.17774 18.4351 2.7089C17.9662 2.24006 17.3304 1.97667 16.6673 1.97667ZM17.5007 10.31C17.5007 10.531 17.4129 10.743 17.2566 10.8993C17.1003 11.0555 16.8883 11.1433 16.6673 11.1433H8.33398C8.11297 11.1433 7.90101 11.0555 7.74473 10.8993C7.58845 10.743 7.50065 10.531 7.50065 10.31V4.47667C7.50065 4.25566 7.58845 4.04369 7.74473 3.88741C7.90101 3.73113 8.11297 3.64334 8.33398 3.64334H16.6673C16.8883 3.64334 17.1003 3.73113 17.2566 3.88741C17.4129 4.04369 17.5007 4.25566 17.5007 4.47667V10.31ZM14.584 6.97667C14.2756 6.97851 13.9788 7.09426 13.7507 7.30167C13.5715 7.1388 13.3488 7.03148 13.1098 6.99275C12.8707 6.95403 12.6256 6.98558 12.4042 7.08355C12.1827 7.18152 11.9945 7.34171 11.8624 7.54464C11.7302 7.74758 11.6599 7.98452 11.6599 8.22667C11.6599 8.46882 11.7302 8.70576 11.8624 8.9087C11.9945 9.11163 12.1827 9.27182 12.4042 9.36979C12.6256 9.46776 12.8707 9.49931 13.1098 9.46058C13.3488 9.42186 13.5715 9.31454 13.7507 9.15167C13.9011 9.28844 14.0827 9.38644 14.2797 9.43715C14.4766 9.48787 14.6829 9.48977 14.8807 9.4427C15.0786 9.39562 15.2619 9.30099 15.4149 9.16702C15.5679 9.03304 15.6859 8.86377 15.7586 8.67387C15.8314 8.48398 15.8567 8.2792 15.8324 8.0773C15.8081 7.8754 15.7349 7.68248 15.6192 7.51527C15.5035 7.34806 15.3487 7.21161 15.1683 7.11775C14.9879 7.02389 14.7873 6.97547 14.584 6.97667ZM13.334 14.4767C13.113 14.4767 12.901 14.5645 12.7447 14.7207C12.5884 14.877 12.5007 15.089 12.5007 15.31V16.1433C12.5007 16.3643 12.4129 16.5763 12.2566 16.7326C12.1003 16.8889 11.8883 16.9767 11.6673 16.9767H3.33398C3.11297 16.9767 2.90101 16.8889 2.74473 16.7326C2.58845 16.5763 2.50065 16.3643 2.50065 16.1433V12.81H3.33398C3.555 12.81 3.76696 12.7222 3.92324 12.5659C4.07952 12.4096 4.16732 12.1977 4.16732 11.9767C4.16732 11.7557 4.07952 11.5437 3.92324 11.3874C3.76696 11.2311 3.555 11.1433 3.33398 11.1433H2.50065V10.31C2.50065 10.089 2.58845 9.87703 2.74473 9.72075C2.90101 9.56447 3.11297 9.47667 3.33398 9.47667C3.555 9.47667 3.76696 9.38887 3.92324 9.23259C4.07952 9.07631 4.16732 8.86435 4.16732 8.64334C4.16732 8.42232 4.07952 8.21036 3.92324 8.05408C3.76696 7.8978 3.555 7.81 3.33398 7.81C2.67094 7.81 2.03506 8.07339 1.56622 8.54224C1.09738 9.01108 0.833984 9.64696 0.833984 10.31V16.1433C0.833984 16.8064 1.09738 17.4423 1.56622 17.9111C2.03506 18.3799 2.67094 18.6433 3.33398 18.6433H11.6673C12.3304 18.6433 12.9662 18.3799 13.4351 17.9111C13.9039 17.4423 14.1673 16.8064 14.1673 16.1433V15.31C14.1673 15.089 14.0795 14.877 13.9232 14.7207C13.767 14.5645 13.555 14.4767 13.334 14.4767ZM5.00065 15.31H5.83398C6.055 15.31 6.26696 15.2222 6.42324 15.0659C6.57952 14.9096 6.66732 14.6977 6.66732 14.4767C6.66732 14.2557 6.57952 14.0437 6.42324 13.8874C6.26696 13.7311 6.055 13.6433 5.83398 13.6433H5.00065C4.77964 13.6433 4.56768 13.7311 4.4114 13.8874C4.25512 14.0437 4.16732 14.2557 4.16732 14.4767C4.16732 14.6977 4.25512 14.9096 4.4114 15.0659C4.56768 15.2222 4.77964 15.31 5.00065 15.31Z" fill="#E9E9EB"/>
</svg>
