<svg width="20" height="21" viewBox="0 0 20 21" fill="none" xmlns="http://www.w3.org/2000/svg">
<path d="M16.875 3.80469H3.125C2.79348 3.80469 2.47554 3.93638 2.24112 4.1708C2.0067 4.40522 1.875 4.72317 1.875 5.05469V16.3047C1.875 16.6362 2.0067 16.9542 2.24112 17.1886C2.47554 17.423 2.79348 17.5547 3.125 17.5547H4.17109C4.28938 17.5547 4.40525 17.5212 4.50524 17.458C4.60522 17.3948 4.68522 17.3045 4.73594 17.1977C5.03986 16.556 5.5197 16.0138 6.11965 15.6341C6.71959 15.2544 7.415 15.0529 8.125 15.0529C8.835 15.0529 9.53041 15.2544 10.1304 15.6341C10.7303 16.0138 11.2101 16.556 11.5141 17.1977C11.5648 17.3045 11.6448 17.3948 11.7448 17.458C11.8448 17.5212 11.9606 17.5547 12.0789 17.5547H16.875C17.2065 17.5547 17.5245 17.423 17.7589 17.1886C17.9933 16.9542 18.125 16.6362 18.125 16.3047V5.05469C18.125 4.72317 17.9933 4.40522 17.7589 4.1708C17.5245 3.93638 17.2065 3.80469 16.875 3.80469ZM6.25 11.9297C6.25 11.5588 6.35997 11.1963 6.56599 10.888C6.77202 10.5797 7.06486 10.3393 7.40747 10.1974C7.75008 10.0555 8.12708 10.0184 8.49079 10.0907C8.85451 10.1631 9.1886 10.3416 9.45083 10.6039C9.71305 10.8661 9.89163 11.2002 9.96397 11.5639C10.0363 11.9276 9.99919 12.3046 9.85727 12.6472C9.71536 12.9898 9.47504 13.2827 9.16669 13.4887C8.85835 13.6947 8.49584 13.8047 8.125 13.8047C7.62772 13.8047 7.15081 13.6071 6.79917 13.2555C6.44754 12.9039 6.25 12.427 6.25 11.9297ZM16.875 16.3047H12.4555C11.9335 15.4074 11.1468 14.6935 10.2031 14.2609C10.6762 13.8397 11.0102 13.2846 11.1606 12.6692C11.311 12.0538 11.2709 11.4073 11.0455 10.8152C10.8202 10.2232 10.4202 9.71365 9.89859 9.35411C9.37701 8.99458 8.75849 8.80205 8.125 8.80205C7.49151 8.80205 6.87299 8.99458 6.35141 9.35411C5.82984 9.71365 5.42985 10.2232 5.20447 10.8152C4.97909 11.4073 4.93896 12.0538 5.0894 12.6692C5.23985 13.2846 5.57376 13.8397 6.04688 14.2609C5.10323 14.6935 4.3165 15.4074 3.79453 16.3047H3.125V5.05469H16.875V16.3047ZM4.375 8.17969V6.92969C4.375 6.76393 4.44085 6.60496 4.55806 6.48775C4.67527 6.37054 4.83424 6.30469 5 6.30469H15C15.1658 6.30469 15.3247 6.37054 15.4419 6.48775C15.5592 6.60496 15.625 6.76393 15.625 6.92969V14.4297C15.625 14.5954 15.5592 14.7544 15.4419 14.8716C15.3247 14.9888 15.1658 15.0547 15 15.0547H13.75C13.5842 15.0547 13.4253 14.9888 13.3081 14.8716C13.1908 14.7544 13.125 14.5954 13.125 14.4297C13.125 14.2639 13.1908 14.105 13.3081 13.9877C13.4253 13.8705 13.5842 13.8047 13.75 13.8047H14.375V7.55469H5.625V8.17969C5.625 8.34545 5.55915 8.50442 5.44194 8.62163C5.32473 8.73884 5.16576 8.80469 5 8.80469C4.83424 8.80469 4.67527 8.73884 4.55806 8.62163C4.44085 8.50442 4.375 8.34545 4.375 8.17969Z" fill="white"/>
</svg>
