<svg width="20" height="20" viewBox="0 0 20 20" fill="none" xmlns="http://www.w3.org/2000/svg">
<path d="M12.5007 8.5553L11.4232 9.63271C11.0978 9.95815 11.0978 10.4858 11.4232 10.8112L12.5007 11.8886M11.6673 10.222L16.6673 10.222M3.33398 14.3886V6.05527M13.334 14.3886C13.334 15.3091 12.5878 16.0553 11.6673 16.0553H8.33398M13.334 6.05527C13.334 5.1348 12.5878 4.38861 11.6673 4.38861H8.33398M4.07615 16.5501L5.74282 17.6612C6.85041 18.3996 8.33398 17.6056 8.33398 16.2744V4.16947C8.33398 2.83831 6.85041 2.04432 5.74282 2.78272L4.07615 3.89383C3.61249 4.20294 3.33398 4.72333 3.33398 5.28058V15.1633C3.33398 15.7206 3.61249 16.2409 4.07615 16.5501Z" stroke="white" stroke-width="1.5" stroke-linecap="round"/>
</svg>
