<svg width="16" height="17" viewBox="0 0 16 17" fill="none" xmlns="http://www.w3.org/2000/svg">
<g clip-path="url(#clip0_1579_14430)">
<path d="M14.4375 7.31006C14.6562 7.31006 14.8594 7.34912 15.0469 7.42725C15.2344 7.50537 15.401 7.61214 15.5469 7.74756C15.6927 7.88298 15.8021 8.04704 15.875 8.23975C15.9479 8.43245 15.9896 8.63818 16 8.85693C16 9.06006 15.9609 9.25798 15.8828 9.45068C15.8047 9.64339 15.6927 9.81266 15.5469 9.9585L9.94531 15.5601L7 16.2944L7.73438 13.3491L13.3359 7.75537C13.487 7.60433 13.6562 7.49235 13.8438 7.41943C14.0312 7.34652 14.2292 7.31006 14.4375 7.31006ZM15 8.85693C15 8.69027 14.9479 8.55745 14.8438 8.4585C14.7396 8.35954 14.6042 8.31006 14.4375 8.31006C14.3646 8.31006 14.2943 8.32048 14.2266 8.34131C14.1589 8.36214 14.099 8.4012 14.0469 8.4585L8.64062 13.8647L8.375 14.9194L9.42969 14.6538L14.8359 9.25537C14.9453 9.146 15 9.01318 15 8.85693ZM2 1.31006V15.3101H5.95312L5.71094 16.3101H1V0.310059H9.71094L14 4.59912V6.09912C13.8073 6.12516 13.6354 6.16423 13.4844 6.21631C13.3333 6.26839 13.1719 6.34912 13 6.4585V5.31006H9V1.31006H2ZM10 2.021V4.31006H12.2891L10 2.021ZM11 7.31006V8.31006H4V7.31006H11ZM4 12.3101V11.3101H8.00781L7.00781 12.3101H4ZM10.0078 9.31006L9.00781 10.3101H4V9.31006H10.0078Z" fill="#E9E9EB"/>
</g>
<defs>
<clipPath id="clip0_1579_14430">
<rect width="16" height="16" fill="white" transform="translate(0 0.310059)"/>
</clipPath>
</defs>
</svg>
