<svg width="20" height="21" viewBox="0 0 20 21" fill="none" xmlns="http://www.w3.org/2000/svg">
<path d="M17.2866 13.4105L16.647 13.0188L16.647 13.0188L17.2866 13.4105ZM16.4911 14.7095L17.1307 15.1012V15.1012L16.4911 14.7095ZM2.71341 7.20951L2.0738 6.81785H2.0738L2.71341 7.20951ZM3.50887 5.91047L4.14848 6.30213L4.14848 6.30213L3.50887 5.91047ZM5.6821 5.36143L6.04068 4.70271L6.04068 4.70271L5.6821 5.36143ZM3.29572 9.25855L2.93714 9.91727H2.93714L3.29572 9.25855ZM14.3179 15.2585L13.9593 15.9173L13.9593 15.9173L14.3179 15.2585ZM16.7043 11.3614L16.3457 12.0202H16.3457L16.7043 11.3614ZM3.50887 14.7095L2.86925 15.1012H2.86925L3.50887 14.7095ZM2.71341 13.4105L3.35302 13.0188H3.35302L2.71341 13.4105ZM16.4911 5.91048L17.1307 5.51882V5.51882L16.4911 5.91048ZM17.2866 7.20952L16.647 7.60118L16.647 7.60118L17.2866 7.20952ZM16.7043 9.25856L17.0629 9.91729L16.7043 9.25856ZM14.3179 5.36145L14.6765 6.02017V6.02017L14.3179 5.36145ZM3.29572 11.3614L3.6543 12.0202H3.6543L3.29572 11.3614ZM5.6821 15.2586L5.32352 14.5998L5.32351 14.5998L5.6821 15.2586ZM14.2333 5.40748L13.8748 4.74875V4.74875L14.2333 5.40748ZM5.76667 5.40747L5.40808 6.0662L5.40808 6.0662L5.76667 5.40747ZM14.2333 15.2125L14.5919 14.5538L14.5919 14.5538L14.2333 15.2125ZM5.76667 15.2125L6.12524 15.8713L6.12525 15.8712L5.76667 15.2125ZM9.20454 3.56H10.7955V2.06H9.20454V3.56ZM10.7955 17.06H9.20454V18.56H10.7955V17.06ZM9.20454 17.06C8.69793 17.06 8.36363 16.6832 8.36363 16.31H6.86363C6.86363 17.5936 7.95388 18.56 9.20454 18.56V17.06ZM11.6364 16.31C11.6364 16.6832 11.3021 17.06 10.7955 17.06V18.56C12.0461 18.56 13.1364 17.5936 13.1364 16.31H11.6364ZM10.7955 3.56C11.3021 3.56 11.6364 3.93675 11.6364 4.31H13.1364C13.1364 3.02639 12.0461 2.06 10.7955 2.06V3.56ZM9.20454 2.06C7.95388 2.06 6.86363 3.02639 6.86363 4.31H8.36363C8.36363 3.93675 8.69793 3.56 9.20454 3.56V2.06ZM16.647 13.0188L15.8515 14.3179L17.1307 15.1012L17.9262 13.8021L16.647 13.0188ZM3.35302 7.60117L4.14848 6.30213L2.86926 5.51881L2.0738 6.81785L3.35302 7.60117ZM4.14848 6.30213C4.36925 5.94159 4.89631 5.78761 5.32351 6.02016L6.04068 4.70271C4.94603 4.10683 3.52712 4.44448 2.86926 5.51881L4.14848 6.30213ZM3.65431 8.59982C3.2505 8.38001 3.14948 7.93357 3.35302 7.60117L2.0738 6.81785C1.3987 7.92033 1.8191 9.30866 2.93714 9.91727L3.65431 8.59982ZM15.8515 14.3178C15.6307 14.6784 15.1037 14.8324 14.6765 14.5998L13.9593 15.9173C15.054 16.5132 16.4729 16.1755 17.1307 15.1012L15.8515 14.3178ZM17.9262 13.8021C18.6013 12.6997 18.1809 11.3113 17.0629 10.7027L16.3457 12.0202C16.7495 12.24 16.8505 12.6864 16.647 13.0188L17.9262 13.8021ZM4.14848 14.3179L3.35302 13.0188L2.0738 13.8021L2.86925 15.1012L4.14848 14.3179ZM15.8515 6.30215L16.647 7.60118L17.9262 6.81786L17.1307 5.51882L15.8515 6.30215ZM16.647 7.60118C16.8505 7.93358 16.7495 8.38002 16.3457 8.59983L17.0629 9.91729C18.1809 9.30867 18.6013 7.92034 17.9262 6.81786L16.647 7.60118ZM14.6765 6.02017C15.1037 5.78762 15.6307 5.9416 15.8515 6.30215L17.1307 5.51882C16.4729 4.44449 15.054 4.10684 13.9593 4.70272L14.6765 6.02017ZM3.35302 13.0188C3.14948 12.6864 3.2505 12.24 3.6543 12.0202L2.93714 10.7027C1.8191 11.3113 1.3987 12.6997 2.0738 13.8021L3.35302 13.0188ZM2.86925 15.1012C3.52712 16.1755 4.94603 16.5132 6.04068 15.9173L5.32351 14.5998C4.89631 14.8324 4.36925 14.6784 4.14848 14.3179L2.86925 15.1012ZM14.5919 6.0662L14.6765 6.02017L13.9593 4.70272L13.8748 4.74875L14.5919 6.0662ZM5.32351 6.02016L5.40808 6.0662L6.12525 4.74875L6.04068 4.70271L5.32351 6.02016ZM14.6765 14.5998L14.5919 14.5538L13.8748 15.8712L13.9593 15.9173L14.6765 14.5998ZM5.40809 14.5538L5.32352 14.5998L6.04067 15.9173L6.12524 15.8713L5.40809 14.5538ZM2.93714 9.91727C3.24828 10.0866 3.24829 10.5333 2.93714 10.7027L3.6543 12.0202C5.00923 11.2826 5.00923 9.33739 3.65431 8.59982L2.93714 9.91727ZM6.12525 15.8712C6.45812 15.69 6.86363 15.931 6.86363 16.31H8.36363C8.36363 14.793 6.74049 13.8285 5.40808 14.5538L6.12525 15.8712ZM13.1364 16.31C13.1364 15.931 13.5419 15.69 13.8748 15.8712L14.5919 14.5538C13.2595 13.8285 11.6364 14.793 11.6364 16.31H13.1364ZM17.0629 10.7027C16.7517 10.5333 16.7517 10.0867 17.0629 9.91729L16.3457 8.59983C14.9908 9.33739 14.9908 11.2826 16.3457 12.0202L17.0629 10.7027ZM5.40808 6.0662C6.74049 6.7915 8.36363 5.82702 8.36363 4.31H6.86363C6.86363 4.68899 6.45812 4.92995 6.12525 4.74875L5.40808 6.0662ZM13.8748 4.74875C13.5419 4.92996 13.1364 4.689 13.1364 4.31H11.6364C11.6364 5.82703 13.2595 6.79151 14.5919 6.0662L13.8748 4.74875ZM11.75 10.31C11.75 11.2765 10.9665 12.06 10 12.06V13.56C11.7949 13.56 13.25 12.1049 13.25 10.31H11.75ZM10 12.06C9.03351 12.06 8.25001 11.2765 8.25001 10.31H6.75001C6.75001 12.1049 8.20508 13.56 10 13.56V12.06ZM8.25001 10.31C8.25001 9.3435 9.03351 8.56 10 8.56V7.06C8.20508 7.06 6.75001 8.51507 6.75001 10.31H8.25001ZM10 8.56C10.9665 8.56 11.75 9.3435 11.75 10.31H13.25C13.25 8.51507 11.7949 7.06 10 7.06V8.56Z" fill="#E9E9EB"/>
</svg>
