<svg width="20" height="21" viewBox="0 0 20 21" fill="none" xmlns="http://www.w3.org/2000/svg">
<path d="M5.73633 16.4281C5.39466 16.4281 5.11133 16.1448 5.11133 15.8031V14.0781C5.11133 13.7365 5.39466 13.4531 5.73633 13.4531C6.07799 13.4531 6.36133 13.7365 6.36133 14.0781V15.8031C6.36133 16.1531 6.07799 16.4281 5.73633 16.4281Z" fill="#E9E9EB"/>
<path d="M10 16.431C9.65833 16.431 9.375 16.1477 9.375 15.806V12.3477C9.375 12.006 9.65833 11.7227 10 11.7227C10.3417 11.7227 10.625 12.006 10.625 12.3477V15.806C10.625 16.156 10.3417 16.431 10 16.431Z" fill="#E9E9EB"/>
<path d="M14.2637 16.4294C13.922 16.4294 13.6387 16.1461 13.6387 15.8044V10.6211C13.6387 10.2794 13.922 9.99609 14.2637 9.99609C14.6053 9.99609 14.8887 10.2794 14.8887 10.6211V15.8044C14.8887 16.1544 14.6137 16.4294 14.2637 16.4294Z" fill="#E9E9EB"/>
<path d="M5.73071 11.6629C5.44738 11.6629 5.19738 11.4712 5.12238 11.1879C5.03904 10.8545 5.23904 10.5129 5.58071 10.4295C8.64738 9.66287 11.3474 7.98787 13.4057 5.59621L13.789 5.14621C14.014 4.88787 14.4057 4.85454 14.6724 5.07954C14.9307 5.30454 14.964 5.69621 14.739 5.96287L14.3557 6.41287C12.1307 9.01287 9.19738 10.8212 5.88071 11.6462C5.83071 11.6629 5.78071 11.6629 5.73071 11.6629Z" fill="#E9E9EB"/>
<path d="M14.2639 8.61302C13.9223 8.61302 13.6389 8.32969 13.6389 7.98802V6.17969H11.8223C11.4806 6.17969 11.1973 5.89635 11.1973 5.55469C11.1973 5.21302 11.4806 4.92969 11.8223 4.92969H14.2639C14.6056 4.92969 14.8889 5.21302 14.8889 5.55469V7.99635C14.8889 8.33802 14.6139 8.61302 14.2639 8.61302Z" fill="#E9E9EB"/>
<path d="M12.4993 19.6393H7.49935C2.97435 19.6393 1.04102 17.706 1.04102 13.181V8.18099C1.04102 3.65599 2.97435 1.72266 7.49935 1.72266H12.4993C17.0243 1.72266 18.9577 3.65599 18.9577 8.18099V13.181C18.9577 17.706 17.0243 19.6393 12.4993 19.6393ZM7.49935 2.97266C3.65768 2.97266 2.29102 4.33932 2.29102 8.18099V13.181C2.29102 17.0227 3.65768 18.3893 7.49935 18.3893H12.4993C16.341 18.3893 17.7077 17.0227 17.7077 13.181V8.18099C17.7077 4.33932 16.341 2.97266 12.4993 2.97266H7.49935Z" fill="#E9E9EB"/>
</svg>
